<svg xmlns="http://www.w3.org/2000/svg" xmlns:xlink="http://www.w3.org/1999/xlink" width="195.816" height="191.074" viewBox="0 0 195.816 191.074">
  <defs>
    <clipPath id="clip-path">
      <path id="Path_126" data-name="Path 126" d="M462.709,648.788s-2.065-52.667.31-61.754,14.561-5.99,14.561-5.99-1.446,20.344-4.337,29.844-5.99,33.665-7.539,36.97S462.709,648.788,462.709,648.788Z" transform="translate(-461.876 -580.535)" clip-rule="evenodd"/>
    </clipPath>
    <clipPath id="clip-path-2">
      <path id="Path_137" data-name="Path 137" d="M442.417,84.6a2.431,2.431,0,0,0-2.1-1.675l-13.228-1.2-5.231-12.243a2.436,2.436,0,0,0-4.48,0L412.15,81.722l-13.23,1.2a2.439,2.439,0,0,0-1.383,4.263l10,8.769-2.948,12.988a2.432,2.432,0,0,0,3.623,2.632l11.411-6.82,11.406,6.82a2.436,2.436,0,0,0,3.625-2.632L431.7,95.955l10-8.767a2.437,2.437,0,0,0,.715-2.589h0ZM442.417,84.6Z" transform="translate(-396.705 -68.001)" clip-rule="evenodd"/>
    </clipPath>
    <clipPath id="clip-path-3">
      <path id="Path_140" data-name="Path 140" d="M238.277,158.539a1.977,1.977,0,0,0-2.023-.821l-10.594,2.122-6.91-8.338a1.981,1.981,0,0,0-3.493,1.037l-1.249,10.756-10.04,4a1.983,1.983,0,0,0-.093,3.644l9.826,4.527.7,10.811a1.978,1.978,0,0,0,3.434,1.215l7.322-7.957,10.473,2.681a1.981,1.981,0,0,0,2.218-2.891l-5.3-9.447,5.77-9.15a1.982,1.982,0,0,0-.042-2.185h0ZM238.277,158.539Z" transform="translate(-202.721 -150.785)" clip-rule="evenodd"/>
    </clipPath>
    <clipPath id="clip-path-4">
      <path id="Path_143" data-name="Path 143" d="M646.7,158.539a1.977,1.977,0,0,1,2.023-.821l10.594,2.122,6.91-8.338a1.981,1.981,0,0,1,3.493,1.037l1.249,10.756,10.04,4a1.983,1.983,0,0,1,.093,3.644l-9.826,4.527-.7,10.811a1.978,1.978,0,0,1-3.434,1.215l-7.322-7.957-10.473,2.681a1.981,1.981,0,0,1-2.218-2.891l5.3-9.447-5.771-9.15a1.983,1.983,0,0,1,.042-2.185h0ZM646.7,158.539Z" transform="translate(-646.355 -150.785)" clip-rule="evenodd"/>
    </clipPath>
    <clipPath id="clip-path-5">
      <path id="Path_146" data-name="Path 146" d="M112.572,283.073a1.2,1.2,0,0,0-1.225-.5l-6.413,1.285-4.183-5.048a1.2,1.2,0,0,0-2.115.628l-.756,6.511L91.8,288.371a1.2,1.2,0,0,0-.056,2.206l5.948,2.74.426,6.544a1.2,1.2,0,0,0,2.079.735l4.432-4.817,6.34,1.623a1.2,1.2,0,0,0,1.343-1.75l-3.21-5.719L112.6,284.4a1.2,1.2,0,0,0-.025-1.323ZM112.572,283.073Z" transform="translate(-91.047 -278.379)" clip-rule="evenodd"/>
    </clipPath>
    <clipPath id="clip-path-6">
      <path id="Path_149" data-name="Path 149" d="M825.487,298.87a1,1,0,0,1,1.021-.415l5.349,1.072,3.49-4.211a1,1,0,0,1,1.764.524l.631,5.431,5.07,2.018a1,1,0,0,1,.047,1.84l-4.962,2.286-.355,5.459a1,1,0,0,1-1.734.613l-3.7-4.018-5.288,1.354a1,1,0,0,1-1.12-1.46l2.677-4.77-2.914-4.62a1,1,0,0,1,.021-1.1h0ZM825.487,298.87Z" transform="translate(-825.31 -294.955)" clip-rule="evenodd"/>
    </clipPath>
  </defs>
  <g id="Group_184" data-name="Group 184" transform="translate(-97.637 -364.999)">
    <g id="Layer_x0020_1" transform="translate(7.953 296.998)">
      <g id="_2226484649584" transform="translate(91.047 68.001)">
        <ellipse id="Ellipse_26" data-name="Ellipse 26" cx="97.908" cy="5.25" rx="97.908" ry="5.25" transform="translate(-1.363 177.788)" fill="#e7e8ed"/>
        <path id="Path_123" data-name="Path 123" d="M484.141,420.931s-1.5-.207-2.84,1.755,1.446,10.276,1.446,10.276L493.8,451.5l1.666-10.9,2.568-16.727-2.788-1.962s-6.661-1.7-8.468-.878S484.141,420.931,484.141,420.931Z" transform="translate(-396.42 -344.33)" fill="#f7fa5f" fill-rule="evenodd"/>
        <path id="Path_124" data-name="Path 124" d="M510.391,645.667s-.207-16.833-.413-22,.31-17.556-1.136-21.686S507.6,577.51,507.6,577.51l9.191-3.2,3.408,8.055L520,585.152s.516,16.007-.62,24.785-2.995,20.653-4.854,25.92a62.436,62.436,0,0,0-2.582,9.811Z" transform="translate(-417.298 -464.557)" fill="#303172" fill-rule="evenodd"/>
        <path id="Path_125" data-name="Path 125" d="M462.709,648.788s-2.065-52.667.31-61.754,14.561-5.99,14.561-5.99-1.446,20.344-4.337,29.844-5.99,33.665-7.539,36.97S462.709,648.788,462.709,648.788Z" transform="translate(-381.492 -469.433)" fill="#5954e0" fill-rule="evenodd"/>
        <g id="Group_172" data-name="Group 172" transform="translate(80.384 111.102)" clip-path="url(#clip-path)">
          <g id="Group_171" data-name="Group 171" transform="translate(1.521 5.015)">
            <path id="_1" data-name="1" d="M471.121,603.686c-.009.151-3.3,52.442-1.242,63.162l-.306.059c-2.069-10.759,1.227-63.088,1.237-63.239Z" transform="translate(-468.891 -603.668)"/>
          </g>
        </g>
        <path id="Path_127" data-name="Path 127" d="M462.709,648.788s-2.065-52.667.31-61.754,14.561-5.99,14.561-5.99-1.446,20.344-4.337,29.844-5.99,33.665-7.539,36.97S462.709,648.788,462.709,648.788Z" transform="translate(-381.492 -469.433)" fill="none" fill-rule="evenodd"/>
        <path id="Path_128" data-name="Path 128" d="M457.114,262.5s3.924,10.533,2.788,18.072-6.3,18.692-6.2,25.094a101.106,101.106,0,0,0,1.343,13.322c.31,2.788,1.136,7.022-2.892,10.74,0,0-1.756-6.3-7.539-6.712,0,0-4.647,4.337-15.18,4.957,0,0-1.033-4.441,1.859-13.425,0,0,.723-6.2-.723-9.4s-6.506-13.012-7.745-21.067-2.891-11.979.1-20.964l4.027-10.946s-1.549-.62-.1-3.2,3.2-1.652,4.027-1.136A4.773,4.773,0,0,1,432.846,250c.1.62.31,2.169-1.033,2.685,0,0-3.511,11.153-2.375,16.316a44.677,44.677,0,0,1,1.136,8.674s-1.652,3.821-.31,6.506c0,0,1.5,1.906,6.355.77,0,0-2.225,3.67,3.352,11.932,0,0,1.549,1.962,2.375,2.788a5.253,5.253,0,0,1,1.962,3.718c.31,2.272,1.652,9.6,1.652,9.6s-1.136-12.082-.929-13.528,1.549-.516,1.342-9.294c0,0-.551-5.374-2.823-5.271a19.161,19.161,0,0,1,3.856,0c2.375.207,4.131-.413,3.924-1.962s-1.342-8.778-1.342-8.778l-1.652-2.272,2.581-6.4a83.9,83.9,0,0,1-3.511-12.289,1.141,1.141,0,0,1-1.239-.826c-.207-.929-.826-1.859.207-2.788s2.582-3.3,3.408-2.375,2.582,2.272,2.582,2.995a2.082,2.082,0,0,1-.826,1.342A108.13,108.13,0,0,1,457.114,262.5Z" transform="translate(-349.667 -208.199)" fill="#db3458" fill-rule="evenodd"/>
        <path id="Path_129" data-name="Path 129" d="M458.353,889.887c-.516,1.549.1,3.2.723,3.2s5.783.1,5.783.1a6.018,6.018,0,0,0-1.854-5.712c-.625-.569-2.143-.31-3.267.515A4.836,4.836,0,0,0,458.353,889.887Z" transform="translate(-378.582 -709.603)" fill-rule="evenodd"/>
        <path id="Path_130" data-name="Path 130" d="M519.349,890.982s-.62.929,2.272,1.033,7.435,0,7.435,0,2.272-.206-.62-1.446-6.093-2.961-6.661-4.4-2.263.031-2.263.031Z" transform="translate(-426.462 -708.323)" fill-rule="evenodd"/>
        <path id="Path_131" data-name="Path 131" d="M460.222,328.532a3.278,3.278,0,0,1-2.582-1.652s-4.337,1.033-4.957-4.337c0,0-4.44-1.859-1.755-5.99,0,0-1.446-5.473,2.479-5.886,0,0,.62-5.06,5.68-4.028,0,0,2.065-5.37,7.435-.723,0,0,5.267-1.446,5.886,3.821,0,0,4.337,2.788,1.239,6.093,0,0,3.2,2.891.207,4.441,0,0,0,6.4-3.924,5.37,0,0-.413,3.1-5.37,2.891s-4.337,0-4.337,0Z" transform="translate(-372.241 -252.86)" stroke="#000" stroke-miterlimit="22.926" stroke-width="0.756" fill-rule="evenodd"/>
        <path id="Path_132" data-name="Path 132" d="M491.684,392.055s0,7.642.31,9.088,1.859,2.169,3.614,2.479a4.5,4.5,0,0,0,4.441-1.756c.723-1.239-2.582-4.337-2.892-6.712S491.684,392.055,491.684,392.055Z" transform="translate(-404.838 -321.81)" fill="#f7c9cb" fill-rule="evenodd"/>
        <path id="Path_133" data-name="Path 133" d="M480.762,350.958s-2.582-1.911-3.15-4.389.207-1.807.568-1.6-.981-2.427-.052-3.614,2.117.155,2.375,1.084-.052-2.995.826-4.337,1.394-1.188,2.014-.568.826,2.324,1.188,1.291,1.755-1.343,1.91-.413.981.62,1.859.671.62,1.446.62,1.446a1.464,1.464,0,0,1,1.652.878c.465,1.136,1.394,5.783-1.756,8.829A6.032,6.032,0,0,1,480.762,350.958Z" transform="translate(-393.659 -278.747)" fill="#fff" fill-rule="evenodd"/>
        <path id="Path_134" data-name="Path 134" d="M480.762,350.082s-2.582-1.91-3.15-4.389.207-1.807.568-1.6-.981-2.427-.052-3.614,2.117.155,2.375,1.084-.052-2.995.826-4.337,1.394-1.188,2.014-.568.826,2.323,1.188,1.291,1.755-1.343,1.91-.413.981.62,1.859.671.62,1.446.62,1.446a1.464,1.464,0,0,1,1.652.878c.465,1.136,1.394,5.783-1.756,8.829A6.032,6.032,0,0,1,480.762,350.082Z" transform="translate(-393.659 -278.06)" fill="#f7c9cb" fill-rule="evenodd"/>
        <path id="Path_135" data-name="Path 135" d="M496.927,384.707l5.06.1s.516.155.1.775a2.955,2.955,0,0,1-3.924,1.188c-2.22-1.033-1.859-2.169-1.239-2.066Z" transform="translate(-408.575 -316.05)" fill="#fff" fill-rule="evenodd"/>
        <g id="Group_183" data-name="Group 183" transform="translate(0 0)">
          <path id="Path_136" data-name="Path 136" d="M442.417,84.6a2.431,2.431,0,0,0-2.1-1.675l-13.228-1.2-5.231-12.243a2.436,2.436,0,0,0-4.48,0L412.15,81.722l-13.23,1.2a2.439,2.439,0,0,0-1.383,4.263l10,8.769-2.948,12.988a2.432,2.432,0,0,0,3.623,2.632l11.411-6.82,11.406,6.82a2.436,2.436,0,0,0,3.625-2.632L431.7,95.955l10-8.767a2.437,2.437,0,0,0,.715-2.589h0ZM442.417,84.6Z" transform="translate(-330.448 -68.001)" fill="#fec606" fill-rule="evenodd"/>
          <g id="Group_174" data-name="Group 174" transform="translate(66.257)" clip-path="url(#clip-path-2)">
            <g id="Group_173" data-name="Group 173" transform="translate(-72.119 -33.407)">
              <path id="_1-2" data-name="1" d="M64-7.628S65.656,15.5,98.7-5.976s28.089-38.829,40.481-36.35,26.437,19,45.438,18.175S207.753-8.455,226.754-6.8,234.189,13.851,244.1,15.5,263.93-70.415,263.93-70.415L84.658-86.112,64-7.628Z" transform="translate(-64.004 86.112)" fill="#ffdd6a" fill-rule="evenodd"/>
            </g>
          </g>
          <path id="Path_138" data-name="Path 138" d="M442.417,84.6a2.431,2.431,0,0,0-2.1-1.675l-13.228-1.2-5.231-12.243a2.436,2.436,0,0,0-4.48,0L412.15,81.722l-13.23,1.2a2.439,2.439,0,0,0-1.383,4.263l10,8.769-2.948,12.988a2.432,2.432,0,0,0,3.623,2.632l11.411-6.82,11.406,6.82a2.436,2.436,0,0,0,3.625-2.632L431.7,95.955l10-8.767a2.437,2.437,0,0,0,.715-2.589h0ZM442.417,84.6Z" transform="translate(-330.448 -68.001)" fill="none" fill-rule="evenodd"/>
          <path id="Path_139" data-name="Path 139" d="M238.277,158.539a1.977,1.977,0,0,0-2.023-.821l-10.594,2.122-6.91-8.338a1.981,1.981,0,0,0-3.493,1.037l-1.249,10.756-10.04,4a1.983,1.983,0,0,0-.093,3.644l9.826,4.527.7,10.811a1.978,1.978,0,0,0,3.434,1.215l7.322-7.957,10.473,2.681a1.981,1.981,0,0,0,2.218-2.891l-5.3-9.447,5.77-9.15a1.982,1.982,0,0,0-.042-2.185h0ZM238.277,158.539Z" transform="translate(-178.513 -132.84)" fill="#fec606" fill-rule="evenodd"/>
          <g id="Group_176" data-name="Group 176" transform="translate(24.207 17.945)" clip-path="url(#clip-path-3)">
            <g id="Group_175" data-name="Group 175" transform="translate(-30.07 -51.352)">
              <path id="_1-3" data-name="1" d="M64-7.628S65.656,15.5,98.7-5.976s28.089-38.829,40.481-36.35,26.437,19,45.438,18.175S207.753-8.455,226.754-6.8,234.189,13.851,244.1,15.5,263.93-70.415,263.93-70.415L84.658-86.112,64-7.628Z" transform="translate(-64.004 86.112)" fill="#ffdd6a" fill-rule="evenodd"/>
            </g>
          </g>
          <path id="Path_141" data-name="Path 141" d="M238.277,158.539a1.977,1.977,0,0,0-2.023-.821l-10.594,2.122-6.91-8.338a1.981,1.981,0,0,0-3.493,1.037l-1.249,10.756-10.04,4a1.983,1.983,0,0,0-.093,3.644l9.826,4.527.7,10.811a1.978,1.978,0,0,0,3.434,1.215l7.322-7.957,10.473,2.681a1.981,1.981,0,0,0,2.218-2.891l-5.3-9.447,5.77-9.15a1.982,1.982,0,0,0-.042-2.185h0ZM238.277,158.539Z" transform="translate(-178.513 -132.84)" fill="none" fill-rule="evenodd"/>
          <path id="Path_142" data-name="Path 142" d="M646.7,158.539a1.977,1.977,0,0,1,2.023-.821l10.594,2.122,6.91-8.338a1.981,1.981,0,0,1,3.493,1.037l1.249,10.756,10.04,4a1.983,1.983,0,0,1,.093,3.644l-9.826,4.527-.7,10.811a1.978,1.978,0,0,1-3.434,1.215l-7.322-7.957-10.473,2.681a1.981,1.981,0,0,1-2.218-2.891l5.3-9.447-5.771-9.15a1.983,1.983,0,0,1,.042-2.185h0ZM646.7,158.539Z" transform="translate(-525.981 -132.84)" fill="#fec606" fill-rule="evenodd"/>
          <g id="Group_178" data-name="Group 178" transform="translate(120.374 17.945)" clip-path="url(#clip-path-4)">
            <g id="Group_177" data-name="Group 177" transform="translate(-126.236 -51.352)">
              <path id="_1-4" data-name="1" d="M64-7.628S65.656,15.5,98.7-5.976s28.089-38.829,40.481-36.35,26.437,19,45.438,18.175S207.753-8.455,226.754-6.8,234.189,13.851,244.1,15.5,263.93-70.415,263.93-70.415L84.658-86.112,64-7.628Z" transform="translate(-64.004 86.112)" fill="#ffdd6a" fill-rule="evenodd"/>
            </g>
          </g>
          <path id="Path_144" data-name="Path 144" d="M646.7,158.539a1.977,1.977,0,0,1,2.023-.821l10.594,2.122,6.91-8.338a1.981,1.981,0,0,1,3.493,1.037l1.249,10.756,10.04,4a1.983,1.983,0,0,1,.093,3.644l-9.826,4.527-.7,10.811a1.978,1.978,0,0,1-3.434,1.215l-7.322-7.957-10.473,2.681a1.981,1.981,0,0,1-2.218-2.891l5.3-9.447-5.771-9.15a1.983,1.983,0,0,1,.042-2.185h0ZM646.7,158.539Z" transform="translate(-525.981 -132.84)" fill="none" fill-rule="evenodd"/>
          <path id="Path_145" data-name="Path 145" d="M112.572,283.073a1.2,1.2,0,0,0-1.225-.5l-6.413,1.285-4.183-5.048a1.2,1.2,0,0,0-2.115.628l-.756,6.511L91.8,288.371a1.2,1.2,0,0,0-.056,2.206l5.948,2.74.426,6.544a1.2,1.2,0,0,0,2.079.735l4.432-4.817,6.34,1.623a1.2,1.2,0,0,0,1.343-1.75l-3.21-5.719L112.6,284.4a1.2,1.2,0,0,0-.025-1.323ZM112.572,283.073Z" transform="translate(-91.047 -232.776)" fill="#fec606" fill-rule="evenodd"/>
          <g id="Group_180" data-name="Group 180" transform="translate(0 45.604)" clip-path="url(#clip-path-5)">
            <g id="Group_179" data-name="Group 179" transform="translate(-5.862 -79.011)">
              <path id="_1-5" data-name="1" d="M64-7.628S65.656,15.5,98.7-5.976s28.089-38.829,40.481-36.35,26.437,19,45.438,18.175S207.753-8.455,226.754-6.8,234.189,13.851,244.1,15.5,263.93-70.415,263.93-70.415L84.658-86.112,64-7.628Z" transform="translate(-64.004 86.112)" fill="#ffdd6a" fill-rule="evenodd"/>
            </g>
          </g>
          <path id="Path_147" data-name="Path 147" d="M112.572,283.073a1.2,1.2,0,0,0-1.225-.5l-6.413,1.285-4.183-5.048a1.2,1.2,0,0,0-2.115.628l-.756,6.511L91.8,288.371a1.2,1.2,0,0,0-.056,2.206l5.948,2.74.426,6.544a1.2,1.2,0,0,0,2.079.735l4.432-4.817,6.34,1.623a1.2,1.2,0,0,0,1.343-1.75l-3.21-5.719L112.6,284.4a1.2,1.2,0,0,0-.025-1.323ZM112.572,283.073Z" transform="translate(-91.047 -232.776)" fill="none" fill-rule="evenodd"/>
          <path id="Path_148" data-name="Path 148" d="M825.487,298.87a1,1,0,0,1,1.021-.415l5.349,1.072,3.49-4.211a1,1,0,0,1,1.764.524l.631,5.431,5.07,2.018a1,1,0,0,1,.047,1.84l-4.962,2.286-.355,5.459a1,1,0,0,1-1.734.613l-3.7-4.018-5.288,1.354a1,1,0,0,1-1.12-1.46l2.677-4.77-2.914-4.62a1,1,0,0,1,.021-1.1h0ZM825.487,298.87Z" transform="translate(-666.144 -245.758)" fill="#fec606" fill-rule="evenodd"/>
          <g id="Group_182" data-name="Group 182" transform="translate(159.166 49.197)" clip-path="url(#clip-path-6)">
            <g id="Group_181" data-name="Group 181" transform="translate(-165.028 -82.604)">
              <path id="_1-6" data-name="1" d="M64-7.628S65.656,15.5,98.7-5.976s28.089-38.829,40.481-36.35,26.437,19,45.438,18.175S207.753-8.455,226.754-6.8,234.189,13.851,244.1,15.5,263.93-70.415,263.93-70.415L84.658-86.112,64-7.628Z" transform="translate(-64.004 86.112)" fill="#ffdd6a" fill-rule="evenodd"/>
            </g>
          </g>
          <path id="Path_150" data-name="Path 150" d="M825.487,298.87a1,1,0,0,1,1.021-.415l5.349,1.072,3.49-4.211a1,1,0,0,1,1.764.524l.631,5.431,5.07,2.018a1,1,0,0,1,.047,1.84l-4.962,2.286-.355,5.459a1,1,0,0,1-1.734.613l-3.7-4.018-5.288,1.354a1,1,0,0,1-1.12-1.46l2.677-4.77-2.914-4.62a1,1,0,0,1,.021-1.1h0ZM825.487,298.87Z" transform="translate(-666.144 -245.758)" fill="none" fill-rule="evenodd"/>
        </g>
        <g id="luggage" transform="translate(115.916 105.561) rotate(34)">
          <path id="Rectangle" d="M0,0,.892.013,2.007,73.286l-.892-.013Z" transform="translate(2.175 2.876) rotate(-33.271)" fill="#384d7d"/>
          <path id="Path" d="M.489,2.086l4.641-2A.958.958,0,0,1,6.34.42L6.47.642A.7.7,0,0,1,6.078,1.67l-4.641,2A.958.958,0,0,1,.227,3.336L.1,3.113A.726.726,0,0,1,.489,2.086Z" transform="translate(22.474 25.581)" fill="#324778"/>
          <path id="bag_body" d="M16.819,1.075C11-1.123,6.824.407,2.821,2.467S.249,6.669.249,6.669L20.91,36.335,23.1,37.56s8.942-5.232,12.6-7.987a2.251,2.251,0,0,0,.584-3.006C32.979,21.168,21.056,2.689,16.819,1.075Z" transform="translate(22.387 25.787)" fill="#5374b7"/>
          <circle id="Oval" cx="1.878" cy="1.878" r="1.878" fill="#546c7d"/>
          <path id="Path-2" data-name="Path" d="M22.536,33.545.462,0,0,.115,22.161,33.8Z" transform="translate(30.851 25.574)" fill="#384d7d"/>
          <g id="wheel" transform="translate(40.506 58.526)">
            <ellipse id="Oval-2" data-name="Oval" cx="4.093" cy="3.572" rx="4.093" ry="3.572" transform="translate(0 0)" fill="#324778"/>
            <ellipse id="Oval-3" data-name="Oval" cx="2.046" cy="1.786" rx="2.046" ry="1.786" transform="translate(2.846 2.707)" fill="#cbdced"/>
          </g>
        </g>
      </g>
    </g>
    <g id="Group_101" data-name="Group 101" transform="translate(-614.5 29)">
      <path id="Path_5" data-name="Path 5" d="M1.355,0s-2.626.424,0,2.966S.7,7.7.7,6.779" transform="translate(771.709 468.533)" fill="none" stroke="#f49d65" stroke-miterlimit="10" stroke-width="2"/>
      <path id="Path_5_Copy_3" data-name="Path 5 Copy 3" d="M-1.982,0s2.626.424,0,2.966.657,4.741.657,3.813" transform="translate(892.883 455.495)" fill="none" stroke="#384a79" stroke-miterlimit="10" stroke-width="2"/>
      <path id="Path_5_Copy_2" data-name="Path 5 Copy 2" d="M1.355,0s-2.626.424,0,2.966S.7,7.7.7,6.779" transform="translate(718.99 448.527)" fill="none" stroke="#384a79" stroke-miterlimit="10" stroke-width="2"/>
      <text id="x" transform="translate(854.5 426)" fill="#f0e0da" font-size="11" font-family="Manrope-Medium, Manrope" font-weight="500" letter-spacing="0.024em"><tspan x="0" y="0">x</tspan></text>
      <text id="x_copy" data-name="x copy" transform="translate(868.5 503)" fill="#f0e0da" font-size="11" font-family="Manrope-Medium, Manrope" font-weight="500" letter-spacing="0.024em"><tspan x="0" y="0">x</tspan></text>
      <ellipse id="Oval_Copy_4" data-name="Oval Copy 4" cx="4.5" cy="5" rx="4.5" ry="5" transform="translate(887.5 442)" fill="#f49d65"/>
      <rect id="Rectangle-2" data-name="Rectangle" width="10.881" height="10.881" transform="translate(720.588 429.177) rotate(45)" fill="#f49d65"/>
    </g>
  </g>
</svg>
